<svg width="63" height="80" viewBox="0 0 63 80" fill="none" xmlns="http://www.w3.org/2000/svg">
<path d="M20.3949 48.344C19.0829 48.344 17.8509 48.296 16.6989 48.2C15.5469 48.136 14.0909 47.912 12.3309 47.528C12.1069 47.272 11.9309 46.968 11.8029 46.616C11.6749 46.232 11.6109 45.96 11.6109 45.8C11.6109 45.576 11.6589 45.464 11.7549 45.464C12.0109 45.464 12.5869 45.592 13.4829 45.848C14.4109 46.072 15.7549 46.184 17.5149 46.184C20.1069 46.184 22.3629 45.72 24.2829 44.792C26.2029 43.832 27.6909 42.584 28.7469 41.048C29.8029 39.512 30.3309 37.864 30.3309 36.104C30.3309 34.12 29.7709 32.296 28.6509 30.632C27.5629 28.968 26.1229 27.448 24.3309 26.072C22.5389 24.696 20.6349 23.48 18.6189 22.424C18.6829 23.512 18.7149 24.616 18.7149 25.736C18.7469 26.856 18.7629 27.992 18.7629 29.144C18.7629 31.224 18.6829 33.272 18.5229 35.288C18.3629 37.272 18.1549 39.016 17.8989 40.52C17.6749 41.992 17.4349 43 17.1789 43.544C16.9869 43.768 16.7149 43.944 16.3629 44.072C16.0429 44.2 15.8029 44.264 15.6429 44.264C15.4189 44.264 15.3069 44.216 15.3069 44.12C15.4669 43.16 15.6109 41.944 15.7389 40.472C15.8989 39 15.9789 37.416 15.9789 35.72C15.9789 33.352 15.8509 30.984 15.5949 28.616C15.3709 26.248 14.9549 24.088 14.3469 22.136C13.7389 20.152 12.8589 18.6 11.7069 17.48L13.7229 14.264C15.5149 16.024 17.4189 17.608 19.4349 19.016C21.4509 20.424 23.4029 21.752 25.2909 23C27.2109 24.248 28.9389 25.512 30.4749 26.792C32.0109 28.072 33.2429 29.464 34.1709 30.968C35.0989 32.44 35.5629 34.152 35.5629 36.104C35.5629 37.96 35.2109 39.576 34.5069 40.952C33.8029 42.296 32.8749 43.448 31.7229 44.408C30.5709 45.336 29.3069 46.104 27.9309 46.712C26.5869 47.288 25.2429 47.704 23.8989 47.96C22.5869 48.216 21.4189 48.344 20.3949 48.344Z" fill="black"/>
<path d="M35.4431 64.9032C35.1551 64.9032 35.0111 64.8552 35.0111 64.7592C35.1391 63.4792 35.2671 61.8312 35.3951 59.8152C35.5551 57.7672 35.6511 55.5752 35.6831 53.2392C35.1391 53.2392 34.5791 53.2392 34.0031 53.2392C33.4591 53.2392 32.9471 53.2232 32.4671 53.1912C32.1471 52.9032 31.9231 52.5672 31.7951 52.1832C31.6991 51.7672 31.6511 51.4632 31.6511 51.2712C31.6511 51.0152 31.6991 50.8872 31.7951 50.8872C32.3071 50.9832 32.8511 51.0472 33.4271 51.0792C34.0031 51.0792 34.7551 51.0792 35.6831 51.0792C35.6511 48.7752 35.5071 46.4872 35.2511 44.2152C35.0271 41.9432 34.6431 39.8632 34.0991 37.9752C33.5551 36.0552 32.8031 34.5352 31.8431 33.4152L34.0991 30.1992C35.8591 31.4152 37.6031 32.4392 39.3311 33.2712C41.0911 34.1032 42.7391 34.8712 44.2751 35.5752C45.8431 36.2472 47.2191 36.9512 48.4031 37.6872C49.6191 38.3912 50.5631 39.2232 51.2351 40.1832C51.9391 41.1112 52.2911 42.2632 52.2911 43.6392C52.2911 44.5992 52.0671 45.5912 51.6191 46.6152C51.2031 47.6392 50.4831 48.6152 49.4591 49.5432C48.4351 50.4392 47.0271 51.2232 45.2351 51.8952C43.4751 52.5352 41.2511 52.9512 38.5631 53.1432C38.4031 55.0312 38.2111 56.9032 37.9871 58.7592C37.7631 60.6152 37.5391 62.4232 37.3151 64.1832C37.0911 64.4072 36.7711 64.5832 36.3551 64.7112C35.9711 64.8392 35.6671 64.9032 35.4431 64.9032ZM38.7071 50.8392C41.7471 50.3912 43.9551 49.5112 45.3311 48.1992C46.7391 46.8872 47.4431 45.4632 47.4431 43.9272C47.4431 42.5192 47.0271 41.3512 46.1951 40.4232C45.3631 39.4632 44.2431 38.6152 42.8351 37.8792C41.4271 37.1112 39.8431 36.3432 38.0831 35.5752C38.4031 37.3352 38.6111 39.0152 38.7071 40.6152C38.8351 42.2152 38.8991 43.8632 38.8991 45.5592C38.8991 46.4232 38.8831 47.3032 38.8511 48.1992C38.8191 49.0632 38.7711 49.9432 38.7071 50.8392Z" fill="black"/>
</svg>
